HIERARCHY
ROOT hip
{
  OFFSET 0 0 0
  CHANNELS 6 Xposition Yposition Zposition Zrotation Yrotation Xrotation
  JOINT abdomen
  {
    OFFSET 0 20.6881 -0.73152
    CHANNELS 3 Zrotation Xrotation Yrotation
    JOINT chest
    {
      OFFSET 0 11.7043 -0.48768
      CHANNELS 3 Zrotation Xrotation Yrotation
      JOINT neck
      {
        OFFSET 0 22.1894 -2.19456
        CHANNELS 3 Zrotation Xrotation Yrotation
        JOINT head
        {
          OFFSET -0.24384 7.07133 1.2192
          CHANNELS 3 Zrotation Xrotation Yrotation
          JOINT leftEye
          {
            OFFSET 4.14528 8.04674 8.04672
            CHANNELS 3 Zrotation Xrotation Yrotation
            End Site
            {
              OFFSET 1 0 0
            }
          }
          JOINT rightEye
          {
            OFFSET -3.6576 8.04674 8.04672
            CHANNELS 3 Zrotation Xrotation Yrotation
            End Site
            {
              OFFSET 1 0 0
            }
          }
        }
      }
      JOINT rCollar
      {
        OFFSET -2.68224 19.2634 -4.8768
        CHANNELS 3 Zrotation Xrotation Yrotation
        JOINT rShldr
        {
          OFFSET -8.77824 -1.95073 1.46304
          CHANNELS 3 Zrotation Xrotation Yrotation
          JOINT rForeArm
          {
            OFFSET -28.1742 -1.7115 0.48768
            CHANNELS 3 Zrotation Xrotation Yrotation
            JOINT rHand
            {
              OFFSET -22.5879 0.773209 7.07136
              CHANNELS 3 Zrotation Xrotation Yrotation
              JOINT rThumb1
              {
                OFFSET -1.2192 -0.487915 3.41376
                CHANNELS 3 Zrotation Xrotation Yrotation
                JOINT rThumb2
                {
                  OFFSET -3.37035 -0.52449 3.41376
                  CHANNELS 3 Zrotation Xrotation Yrotation
                  End Site
                  {
                    OFFSET -1.78271 -1.18214 1.43049
                  }
                }
              }
              JOINT rIndex1
              {
                OFFSET -7.75947 0.938293 5.60832
                CHANNELS 3 Zrotation Xrotation Yrotation
                JOINT rIndex2
                {
                  OFFSET -2.54057 -0.884171 1.56538
                  CHANNELS 3 Zrotation Xrotation Yrotation
                  End Site
                  {
                    OFFSET -1.62519 -0.234802 1.16502
                  }
                }
              }
              JOINT rMid1
              {
                OFFSET -8.24714 1.18213 3.41376
                CHANNELS 3 Zrotation Xrotation Yrotation
                JOINT rMid2
                {
                  OFFSET -3.10165 -0.590103 1.0647
                  CHANNELS 3 Zrotation Xrotation Yrotation
                  End Site
                  {
                    OFFSET -2.48547 -0.328903 0.83742
                  }
                }
              }
              JOINT rRing1
              {
                OFFSET -8.82822 0.546677 1.51678
                CHANNELS 3 Zrotation Xrotation Yrotation
                JOINT rRing2
                {
                  OFFSET -2.60934 -0.819778 -0.0198488
                  CHANNELS 3 Zrotation Xrotation Yrotation
                  End Site
                  {
                    OFFSET -2.33842 -0.294052 0.168128
                  }
                }
              }
              JOINT rPinky1
              {
                OFFSET -8.27202 -0.0477905 -0.4584
                CHANNELS 3 Zrotation Xrotation Yrotation
                JOINT rPinky2
                {
                  OFFSET -1.82734 -0.647385 -0.700984
                  CHANNELS 3 Zrotation Xrotation Yrotation
                  End Site
                  {
                    OFFSET -1.69225 -0.51767 -0.607171
                  }
                }
              }
            }
          }
        }
      }
      JOINT lCollar
      {
        OFFSET 2.68224 19.2634 -4.8768
        CHANNELS 3 Zrotation Xrotation Yrotation
        JOINT lShldr
        {
          OFFSET 8.77824 -1.95073 1.46304
          CHANNELS 3 Zrotation Xrotation Yrotation
          JOINT lForeArm
          {
            OFFSET 28.1742 -1.7115 0.48768
            CHANNELS 3 Zrotation Xrotation Yrotation
            JOINT lHand
            {
              OFFSET 22.5879 0.773209 7.07136
              CHANNELS 3 Zrotation Xrotation Yrotation
              JOINT lThumb1
              {
                OFFSET 1.2192 -0.487915 3.41376
                CHANNELS 3 Zrotation Xrotation Yrotation
                JOINT lThumb2
                {
                  OFFSET 3.37035 -0.52449 3.41376
                  CHANNELS 3 Zrotation Xrotation Yrotation
                  End Site
                  {
                    OFFSET 1.78271 -1.18214 1.43049
                  }
                }
              }
              JOINT lIndex1
              {
                OFFSET 7.75947 0.938293 5.60832
                CHANNELS 3 Zrotation Xrotation Yrotation
                JOINT lIndex2
                {
                  OFFSET 2.54057 -0.884171 1.56538
                  CHANNELS 3 Zrotation Xrotation Yrotation
                  End Site
                  {
                    OFFSET 1.62519 -0.234802 1.16502
                  }
                }
              }
              JOINT lMid1
              {
                OFFSET 8.24714 1.18213 3.41376
                CHANNELS 3 Zrotation Xrotation Yrotation
                JOINT lMid2
                {
                  OFFSET 3.10165 -0.590103 1.0647
                  CHANNELS 3 Zrotation Xrotation Yrotation
                  End Site
                  {
                    OFFSET 2.48547 -0.328903 0.83742
                  }
                }
              }
              JOINT lRing1
              {
                OFFSET 8.82822 0.546677 1.51678
                CHANNELS 3 Zrotation Xrotation Yrotation
                JOINT lRing2
                {
                  OFFSET 2.60934 -0.819778 -0.0198488
                  CHANNELS 3 Zrotation Xrotation Yrotation
                  End Site
                  {
                    OFFSET 2.33842 -0.294052 0.168128
                  }
                }
              }
              JOINT lPinky1
              {
                OFFSET 8.27202 -0.0477905 -0.4584
                CHANNELS 3 Zrotation Xrotation Yrotation
                JOINT lPinky2
                {
                  OFFSET 1.82734 -0.647385 -0.700984
                  CHANNELS 3 Zrotation Xrotation Yrotation
                  End Site
                  {
                    OFFSET 1.69225 -0.51767 -0.607171
                  }
                }
              }
            }
          }
        }
      }
    }
  }
  JOINT rButtock
  {
    OFFSET -8.77824 4.35084 1.2192
    CHANNELS 3 Zrotation Xrotation Yrotation
    JOINT rThigh
    {
      OFFSET 0 -1.70687 -2.19456
      CHANNELS 3 Zrotation Xrotation Yrotation
      JOINT rShin
      {
        OFFSET 0 -36.8199 0.73152
        CHANNELS 3 Zrotation Xrotation Yrotation
        JOINT rFoot
        {
          OFFSET 0.73152 -45.1104 -5.12064
          CHANNELS 3 Zrotation Xrotation Yrotation
          End Site
          {
            OFFSET -1.1221 -3.69964 12.103
          }
        }
      }
    }
  }
  JOINT lButtock
  {
    OFFSET 8.77824 4.35084 1.2192
    CHANNELS 3 Zrotation Xrotation Yrotation
    JOINT lThigh
    {
      OFFSET 0 -1.70687 -2.19456
      CHANNELS 3 Zrotation Xrotation Yrotation
      JOINT lShin
      {
        OFFSET 0 -36.8199 0.73152
        CHANNELS 3 Zrotation Xrotation Yrotation
        JOINT lFoot
        {
          OFFSET -0.73152 -45.1104 -5.12064
          CHANNELS 3 Zrotation Xrotation Yrotation
          End Site
          {
            OFFSET 1.1221 -3.69964 12.103
          }
        }
      }
    }
  }
}
MOTION
Frames:	4
Frame Time:	0.00833333
2.40625 81.4457 123.225 181.797 4.9966 -171.193 -5.43685 -10.6763 3.05356 -0.470973 9.13827 0.91602 -3.9033 19.0019 -1.74766 12.9692 -29.7651 0.169271 -0.0 0.0 0.0 -0.0 0.0 0.0 2.41151e-14 -1.79703e-13 -1.77217e-13 83.4309 5.57219 -2.79496 -12.5585 -5.84805 22.696 -1.61107 33.5322 5.34403 -4.60376e-10 -2.44349e-10 9.04152e-10 -7.73845e-10 -4.34225e-10 1.57268e-09 -4.60371e-10 -2.44358e-10 9.04139e-10 7.73091 5.47488 0.417314 -4.60376e-10 -2.44361e-10 9.04162e-10 2.90554 0.965183 0.102902 -4.60371e-10 -2.44362e-10 9.04155e-10 10.2786 0.731801 0.0259123 -4.6039e-10 -2.44356e-10 9.04152e-10 2.22167 -0.733487 -0.20892 2.41911e-14 -1.79699e-13 -1.77415e-13 -79.9723 -15.9962 3.65647 5.89146 -1.99555 -10.2917 4.86345 51.3078 -10.1062 1.80467e-09 6.73737e-11 -7.92305e-10 3.0708e-09 9.74363e-11 -1.43419e-09 1.80466e-09 6.73729e-11 -7.92295e-10 -7.73091 5.47488 -0.417314 1.80467e-09 6.73735e-11 -7.92305e-10 -2.90554 0.965183 -0.102902 1.80466e-09 6.73739e-11 -7.92301e-10 -10.2786 0.731801 -0.0259123 1.80467e-09 6.73753e-11 -7.92302e-10 -2.22167 -0.733487 0.20892 -2.03217e-16 0.0 -3.88251e-19 0.407895 3.63901 -1.5823 -0.221176 11.8735 -0.575575 4.50686 -12.3088 14.9101 2.03217e-16 0.0 3.88251e-19 0.331277 -39.8781 2.72813 0.0420727 25.95 0.497317 0.699293 7.6274 -2.24918
2.0045 81.5481 121.822 181.161 4.6061 -171.312 -5.93808 -10.7326 2.83733 -0.290295 9.18325 0.833467 -3.92099 19.0451 -1.80574 13.0617 -29.9634 0.0943369 -0.0 0.0 0.0 -0.0 0.0 0.0 6.46165e-15 -1.01965e-13 -1.33477e-13 83.3739 4.23098 -3.3641 -12.434 -5.75801 22.4522 -1.66514 34.0097 5.44148 -7.06703e-11 -1.86324e-10 4.58685e-10 -1.12107e-10 -3.26089e-10 7.93231e-10 -7.06654e-11 -1.86331e-10 4.58672e-10 7.73091 5.47488 0.417314 -7.06709e-11 -1.86333e-10 4.58694e-10 2.90554 0.965183 0.102902 -7.06675e-11 -1.86334e-10 4.58687e-10 10.2786 0.731801 0.0259123 -7.06825e-11 -1.8633e-10 4.58686e-10 2.22167 -0.733487 -0.20892 6.51994e-15 -1.01962e-13 -1.33694e-13 -80.0321 -17.2389 3.6722 5.76898 -1.94098 -10.0738 5.28471 52.6992 -10.6367 8.77053e-10 1.22357e-11 -4.14165e-10 1.49044e-09 1.08822e-11 -7.47366e-10 8.77047e-10 1.22362e-11 -4.14157e-10 -7.73091 5.47488 -0.417314 8.77052e-10 1.2236e-11 -4.14166e-10 -2.90554 0.965183 -0.102902 8.77047e-10 1.22377e-11 -4.14162e-10 -10.2786 0.731801 -0.0259123 8.77054e-10 1.22388e-11 -4.14163e-10 -2.22167 -0.733487 0.20892 -2.03217e-16 0.0 -3.88251e-19 -0.317993 2.58538 -1.67684 -0.23304 15.3917 -0.505604 4.08295 -10.7332 14.7518 2.03217e-16 0.0 3.88251e-19 -0.213467 -39.2007 3.40289 0.0429093 26.4651 0.522173 0.822002 7.32027 -3.49118
1.53753 81.6592 120.455 180.313 4.1643 -171.442 -6.61848 -10.7124 2.50174 -0.0453614 9.21458 0.713203 -3.94295 19.0351 -1.86994 13.1525 -30.0787 0.00207587 -0.0 0.0 0.0 -0.0 0.0 0.0 -2.903e-14 -8.95348e-16 -8.29087e-14 83.2833 2.69454 -3.97074 -12.2959 -5.659 22.1828 -1.72185 34.4996 5.54256 5.40602e-10 -2.13806e-10 -3.20484e-11 9.30592e-10 -3.63776e-10 -7.05981e-11 5.40607e-10 -2.13809e-10 -3.206e-11 7.73091 5.47488 0.417314 5.406e-10 -2.13809e-10 -3.20407e-11 2.90554 0.965183 0.102902 5.40603e-10 -2.13812e-10 -3.20466e-11 10.2786 0.731801 0.0259123 5.40595e-10 -2.1381e-10 -3.20449e-11 2.22167 -0.733487 -0.20892 -2.90202e-14 -8.93369e-16 -8.31634e-14 -80.1417 -18.5831 3.57768 5.64501 -1.88607 -9.85379 5.77644 54.1763 -11.2429 -2.97145e-10 -4.77731e-11 1.41052e-10 -5.06038e-10 -8.1907e-11 2.5528e-10 -2.97151e-10 -4.7771e-11 1.41057e-10 -7.73091 5.47488 -0.417314 -2.9715e-10 -4.77724e-11 1.41048e-10 -2.90554 0.965183 -0.102902 -2.97152e-10 -4.77689e-11 1.41054e-10 -10.2786 0.731801 -0.0259123 -2.97144e-10 -4.77682e-11 1.41051e-10 -2.22167 -0.733487 0.20892 -2.03217e-16 0.0 -3.88251e-19 -1.1822 0.93286 -2.05286 -0.255531 19.9599 -0.42325 3.62601 -8.80708 14.7427 2.03217e-16 0.0 3.88251e-19 -0.88814 -38.4845 4.10415 0.0450445 26.9723 0.554755 0.928534 6.64199 -5.01971
1.13192 81.7488 119.137 179.841 3.7229 -171.636 -7.32879 -10.6354 2.13848 0.193928 9.21382 0.584992 -3.97317 19.0018 -1.92683 13.2472 -30.2147 -0.0719 -0.0 0.0 0.0 -0.0 0.0 0.0 -6.30909e-14 8.75019e-14 -3.59726e-14 83.1423 1.31083 -4.57494 -12.1723 -5.57073 21.943 -1.77263 34.926 5.63169 1.08158e-09 -2.62592e-10 -4.21468e-10 1.85456e-09 -4.39956e-10 -7.57661e-10 1.08159e-09 -2.62589e-10 -4.21478e-10 7.73091 5.47488 0.417314 1.08158e-09 -2.62588e-10 -4.21463e-10 2.90554 0.965183 0.102902 1.08158e-09 -2.62592e-10 -4.21468e-10 10.2786 0.731801 0.0259123 1.08158e-09 -2.62592e-10 -4.21463e-10 2.22167 -0.733487 -0.20892 -6.31318e-14 8.7503e-14 -3.62623e-14 -80.3013 -19.3438 3.3712 5.5795 -1.85762 -9.73724 6.09474 55.0747 -11.6314 -1.30136e-09 -9.38855e-11 6.2477e-10 -2.21227e-09 -1.52409e-10 1.12885e-09 -1.30136e-09 -9.3882e-11 6.24774e-10 -7.73091 5.47488 -0.417314 -1.30137e-09 -9.38844e-11 6.24765e-10 -2.90554 0.965183 -0.102902 -1.30137e-09 -9.38794e-11 6.24771e-10 -10.2786 0.731801 -0.0259123 -1.30136e-09 -9.38789e-11 6.24767e-10 -2.22167 -0.733487 0.20892 -2.03217e-16 0.0 -3.88251e-19 -2.15392 -1.16136 -2.61716 -0.291106 25.1027 -0.328755 3.11784 -6.71397 14.6753 2.03217e-16 0.0 3.88251e-19 -1.58845 -37.7495 4.82921 0.046773 27.4217 0.588847 0.995028 5.84795 -6.57123
